<svg width="20" height="20" viewBox="0 0 20 20" fill="none" xmlns="http://www.w3.org/2000/svg">
<path d="M1.53846 6.25V18.75C1.53846 19.4375 2.23077 20 3.07692 20H16.9231C17.7692 20 18.4615 19.4375 18.4615 18.75V6.25H1.53846ZM6.15385 17.5H4.61538V8.75H6.15385V17.5ZM9.23077 17.5H7.69231V8.75H9.23077V17.5ZM12.3077 17.5H10.7692V8.75H12.3077V17.5ZM15.3846 17.5H13.8462V8.75H15.3846V17.5ZM18.8462 2.5H13.8462V0.9375C13.8449 0.689164 13.723 0.45128 13.5069 0.275678C13.2907 0.100077 12.998 0.000987433 12.6923 0L7.30769 0C7.00205 0.000987433 6.70927 0.100077 6.49314 0.275678C6.27702 0.45128 6.15506 0.689164 6.15385 0.9375V2.5H1.15385C0.848077 2.50066 0.555063 2.59964 0.338851 2.77532C0.122638 2.95099 0.000812141 3.18906 0 3.4375V5H20V3.4375C19.9992 3.18906 19.8774 2.95099 19.6611 2.77532C19.4449 2.59964 19.1519 2.50066 18.8462 2.5ZM12.3077 2.5H7.69231V1.26625H12.3077V2.5Z" fill="white"/>
</svg>
